<?xml version="1.0" standalone="no"?>
<!DOCTYPE svg PUBLIC "-//W3C//DTD SVG 20010904//EN"
 "http://www.w3.org/TR/2001/REC-SVG-20010904/DTD/svg10.dtd">
<svg version="1.0" xmlns="http://www.w3.org/2000/svg"
 width="16.000000pt" height="16.000000pt" viewBox="0 0 16.000000 16.000000"
 preserveAspectRatio="xMidYMid meet">
<metadata>
Created by potrace 1.11, written by Peter Selinger 2001-2013
</metadata>
<g transform="translate(0.000000,16.000000) scale(0.003125,-0.003125)"
fill="#000000" stroke="none">
<path d="M4081 4689 c-257 -49 -458 -241 -517 -495 -13 -57 -13 -209 1 -266
l13 -57 -51 -29 c-29 -15 -95 -50 -147 -77 -52 -26 -123 -63 -157 -81 -33 -19
-66 -34 -72 -34 -6 0 -25 14 -43 30 -84 81 -198 121 -331 116 -135 -4 -238
-53 -327 -153 -122 -137 -149 -335 -68 -503 29 -61 117 -163 161 -187 18 -9
18 -12 -1 -69 -17 -49 -58 -183 -68 -219 -29 -104 -130 -402 -138 -407 -6 -4
-29 -8 -51 -8 -106 -1 -215 -50 -300 -135 -98 -98 -140 -210 -134 -356 l4 -82
-140 -73 c-77 -40 -171 -88 -210 -107 l-70 -35 -61 61 c-74 74 -146 119 -246
155 -62 22 -90 26 -188 26 -127 1 -163 -4 -242 -34 -259 -98 -422 -342 -413
-617 4 -113 18 -169 69 -272 73 -150 219 -273 381 -323 52 -16 97 -22 175 -22
123 -1 159 5 249 41 279 110 438 389 396 693 -15 107 -32 89 196 207 l207 107
41 -35 c126 -109 292 -146 442 -99 277 85 408 389 281 648 -26 54 -103 143
-150 174 l-22 15 44 139 c24 76 74 233 111 347 41 129 71 207 78 205 7 -1 41
1 77 6 167 20 314 140 373 306 21 58 30 183 17 229 -8 30 -27 18 279 177 l144
75 56 -57 c96 -97 211 -161 336 -185 53 -10 193 -13 235 -4 14 3 38 8 54 11
41 7 168 67 213 100 270 199 344 580 167 861 -89 140 -230 243 -389 283 -62
15 -205 20 -264 9z"/>
</g>
</svg>
